<?xml version="1.0" encoding="utf-8"?>
<!-- Generator: Adobe Illustrator 25.4.1, SVG Export Plug-In . SVG Version: 6.00 Build 0)  -->
<svg version="1.1" xmlns="http://www.w3.org/2000/svg" xmlns:xlink="http://www.w3.org/1999/xlink" x="0px" y="0px"
	 viewBox="0 0 260.83 270.61" style="enable-background:new 0 0 260.83 270.61;" xml:space="preserve">
<style type="text/css">
	.st0{display:none;}
	.st1{display:inline;fill:#010202;}
	.st2{fill:#FFFFFF;}
	.st3{fill:none;stroke:#FFFFFF;stroke-width:3;stroke-miterlimit:10;}
</style>
<g id="Layer_2" class="st0">
	<rect class="st1" width="260.83" height="270.61"/>
</g>
<g id="Layer_1">
	<g>
		<g>
			<path class="st2" d="M195.28,199.15c9.43,16.34,18.88,32.7,28.47,49.33c-2.6,0-4.96-0.23-7.26,0.05
				c-3.61,0.45-5.52-0.99-7.28-4.18c-7-12.64-14.36-25.08-21.59-37.59c-0.21-0.36-0.44-0.71-0.55-0.89
				c-37.69,23.27-75.16,23.18-112.78-0.32c-2.92,5.06-6,10.38-9.07,15.7c-4.6,7.96-9.22,15.92-13.78,23.9
				c-0.51,0.89-1.02,1.23-2.09,1.19c-2.99-0.11-5.99-0.04-9.39-0.04c30.48-52.78,60.81-105.31,91.3-158.13
				c1.9,3.29,3.7,6.33,5.37,9.43c0.19,0.36-0.23,1.16-0.53,1.67c-3.43,5.76-6.96,11.47-10.34,17.26
				c-13.41,23-26.78,46.02-40.14,69.06c-1.97,3.39-3.74,6.9-5.72,10.56c11.17,8.05,23.57,13.27,37.2,15.32
				c23.36,3.51,44.83-1.48,64.47-15c-0.48-0.87-0.92-1.68-1.38-2.48c-13.21-22.89-26.42-45.78-39.67-68.64
				c-0.69-1.19-0.77-2.04,0.01-3.24c1.6-2.46,3-5.06,4.49-7.59c0.2-0.35,0.45-0.67,0.81-1.21c7.43,12.89,14.75,25.59,22.08,38.29
				c7.31,12.66,14.63,25.31,22.09,38.22c20.18-19.42,30.1-42.81,28.28-70.63c-1.82-27.8-14.86-49.61-37.25-66.25
				c1.68-2.89,3.39-5.81,5.27-9.04c25.74,18.77,40.59,43.63,42.42,75.44C230.54,151.14,218.71,177.59,195.28,199.15z"/>
			<path class="st3" d="M172.84,36.47c-1.75,2.99-3.44,5.88-5.18,8.85c-22.68-9.85-45.6-10.79-68.67-1.92
				c-16.83,6.47-30.28,17.39-40.5,32.23c-20.11,29.24-18.63,65.31-5.24,89.78c14.04-22.18,28.01-44.26,42.1-66.52
				c2.22,2.87,4.33,5.55,6.34,8.3c0.23,0.31-0.02,1.17-0.31,1.62c-4.46,7.13-8.97,14.23-13.46,21.34
				c-9.78,15.46-19.58,30.9-29.33,46.38c-1.73,2.75-3.27,5.61-5.06,8.69c-9.69-12.5-16.11-26.29-18.91-41.62
				c-4.77-26.1-0.22-50.54,14.53-72.68C79.12,25.96,134.17,17.47,172.84,36.47z"/>
		</g>
	</g>
</g>
</svg>
